<svg width="349" height="349" viewBox="0 0 349 349" fill="none" xmlns="http://www.w3.org/2000/svg">
<g clip-path="url(#clip0_3_426)">
<rect width="349" height="349" fill="#151D3B"/>
<path d="M262.701 234.378C265.751 234.841 271.671 236.389 274.285 239.478C277.729 243.548 281.016 255.913 282.111 256.852C283.207 257.792 295.26 259.357 297.921 261.705C300.582 264.053 306.686 258.574 309.973 260.139C313.26 261.705 318.582 268.592 319.521 268.905C320.355 269.183 333.897 260.824 340.759 260.041C342.09 259.889 343 261.063 343 262.402V344.95C343 346.607 341.657 347.95 340 347.95H221.277H208.388H9C7.34314 347.95 6 346.607 6 344.95V313.006C6 312.322 6.22928 311.663 6.65982 311.132C15.2809 300.496 32.9075 280.352 39.4965 278.766C47.9489 276.731 54.2099 275.009 54.2099 273.757C54.2099 272.505 54.0534 257.166 61.0971 257.322C68.1407 257.479 76.9062 262.8 77.8453 266.087C78.7845 269.375 81.7585 263.27 93.3414 264.679C93.9974 264.694 94.6714 264.758 95.3611 264.866C107.868 265.709 133.309 262.355 150.63 257.322C165.21 253.085 230.5 240.333 261.779 234.399C262.088 234.34 262.39 234.331 262.701 234.378Z" fill="#151D3B"/>
<path d="M282.111 256.852C281.016 255.913 277.729 243.548 274.285 239.478C271.671 236.389 265.751 234.841 262.701 234.378C262.39 234.331 262.088 234.34 261.779 234.399C230.5 240.333 165.21 253.085 150.63 257.322C132.316 262.644 104.924 266.087 93.3414 264.679M282.111 256.852C283.207 257.792 295.26 259.357 297.921 261.705C300.582 264.053 306.686 258.574 309.973 260.139C313.26 261.705 318.582 268.592 319.521 268.905C320.355 269.183 333.897 260.824 340.759 260.041C342.09 259.889 343 261.063 343 262.402V344.95C343 346.607 341.657 347.95 340 347.95H208.388M282.111 256.852C290.564 270.261 307.97 297.894 309.973 301.149C312.477 305.219 284.303 310.854 280.859 308.036C278.52 306.123 272.48 299.711 268.507 295.391C267.438 294.23 265.654 294.084 264.417 295.064L243.867 311.338C243.49 311.637 243.195 312.014 242.994 312.451C238.099 323.085 226.996 341.36 223.813 346.543C223.27 347.427 222.314 347.95 221.277 347.95H208.388M93.3414 264.679C81.7585 263.27 78.7845 269.375 77.8453 266.087C76.9062 262.8 68.1407 257.479 61.0971 257.322C54.0534 257.166 54.2099 272.505 54.2099 273.757C54.2099 275.009 47.9489 276.731 39.4965 278.766C32.9075 280.352 15.2809 300.496 6.65982 311.132C6.22928 311.663 6 312.322 6 313.006V344.95C6 346.607 7.34314 347.95 9 347.95H208.388M93.3414 264.679C106.123 264.981 125.736 283.497 134.905 293.744C135.547 294.461 136.484 294.836 137.444 294.749L168.415 291.92C169.512 291.82 170.459 291.124 170.939 290.133C172.385 287.147 174.679 283.304 176.144 283.931C177.701 284.599 187.036 287.458 193.014 289.258C194.251 289.631 195.109 290.746 195.15 292.037C195.419 300.615 195.896 314.566 196.141 317.251C196.162 317.48 196.222 317.692 196.308 317.905L208.388 347.95" stroke="#D82148" stroke-width="3" stroke-linecap="round"/>
<path d="M86.4546 45.3862C99.6442 37.2873 120.798 36.0478 131.841 36.4823C133.298 36.5397 134.568 35.5635 135.171 34.2355C138.101 27.7831 145.2 27.1344 154.074 20.6551C163.935 13.4549 163.935 15.3332 191.796 15.0202C219.658 14.7071 216.371 17.9942 233.589 27.8553C250.807 37.7164 244.546 34.7424 267.398 48.8297C290.251 62.9171 279.138 55.2473 301.208 66.9867C323.278 78.7262 315.921 80.2914 323.591 93.2831C331.261 106.275 318.269 126.623 313.26 143.058C308.252 159.493 308.408 155.893 306.53 179.529C304.652 203.164 309.973 188.92 313.26 201.129C316.547 213.338 307.939 225.391 296.982 223.982C286.025 222.573 285.555 216.782 279.138 218.973C272.72 221.165 270.372 225.86 264.737 228.052C260.891 229.548 263.533 215.953 266.109 205.903C266.668 203.721 264.758 201.673 262.552 202.128L138.715 227.637C137.5 227.887 136.561 228.857 136.404 230.087C135.693 235.658 135.051 246.009 136.699 255.131C139.047 268.122 134.351 267.183 113.847 268.435C93.3417 269.688 65.1671 251.687 67.515 245.27C69.8629 238.852 72.8369 236.817 67.515 228.052C62.1931 219.286 56.4017 216.312 53.4277 205.669C50.4537 195.025 60.6278 188.607 56.4017 183.285C52.1755 177.964 46.5405 177.65 46.5405 161.685C46.5405 145.719 48.1058 153.232 53.4277 132.728C58.7495 112.223 49.2015 107.214 53.4277 89.0569C57.6538 70.8999 68.6107 56.343 86.4546 45.3862Z" fill="#151D3B" stroke="#D82148" stroke-width="3" stroke-linecap="round"/>
<path d="M222.822 286.126C219.735 290.844 206.636 296.339 175.986 283.618C152.557 273.895 131.851 242.286 118.855 216.393C118.611 216.139 118.474 215.836 118.424 215.53C114.05 206.742 110.579 198.655 108.21 192.364C106.332 187.576 100.59 174.001 98.8196 165.285C94.7869 145.43 95.8265 140.179 98.7394 125.462L98.8195 125.058L108.07 95.9173C108.163 95.6238 108.206 95.3177 108.225 95.0103C108.479 91.0916 111.852 86.6534 114.696 82.9122L114.784 82.7958C117.758 78.8826 129.967 70.2737 133.567 67.4563C137.167 64.6388 143.115 61.3518 148.594 63.6996C154.072 66.0475 159.864 62.604 176.768 61.3518C193.542 60.1093 188.125 63.6439 195.684 69.0506C195.801 69.1336 195.927 69.2093 196.054 69.2744C205.402 74.0642 216.174 84.3012 233.587 98.6049C240.258 104.085 239.225 113.475 248.772 122.553C253.977 127.503 254.875 138.676 262.232 147.128C269.588 155.58 265.206 195.807 265.362 211.147C265.376 212.511 265.322 213.981 265.208 215.53C264.039 231.395 256.579 255.576 251.588 260.14C247.281 264.078 231.332 278.316 223.504 285.293C223.233 285.535 223.021 285.822 222.822 286.126Z" fill="#151D3B"/>
<path d="M118.424 215.53C114.05 206.742 110.579 198.655 108.21 192.364C106.332 187.576 100.59 174.001 98.8196 165.285C94.7502 145.25 95.8458 140.084 98.8195 125.058L108.07 95.9173C108.163 95.6238 108.206 95.3177 108.225 95.0103C108.481 91.0509 111.923 86.561 114.784 82.7958C117.758 78.8826 129.967 70.2737 133.567 67.4563C137.167 64.6388 143.115 61.3518 148.594 63.6996C154.072 66.0475 159.864 62.604 176.768 61.3518C193.542 60.1093 188.125 63.6439 195.684 69.0506C195.801 69.1336 195.927 69.2093 196.054 69.2744C205.402 74.0642 216.174 84.3012 233.587 98.6049C240.258 104.085 239.225 113.475 248.772 122.553C253.977 127.503 254.875 138.676 262.232 147.128C269.588 155.58 265.206 195.807 265.362 211.147C265.376 212.511 265.322 213.981 265.208 215.53M118.424 215.53C131.39 241.58 152.296 273.787 175.986 283.618C206.636 296.339 219.735 290.844 222.822 286.126C223.021 285.822 223.233 285.535 223.504 285.293C231.332 278.316 247.281 264.078 251.588 260.14C256.579 255.576 264.039 231.395 265.208 215.53M118.424 215.53C118.724 217.356 122.078 219.036 133.098 211.147C146.872 201.286 163.307 179.059 169.255 177.963C175.203 176.868 226.387 182.972 233.587 181.564C240.788 180.155 262.39 169.03 265.208 169.5C268.025 169.97 255.5 198.819 262.232 207.234C264.736 210.364 265.259 214.069 265.208 215.53" stroke="#D82148" stroke-width="3" stroke-linecap="round"/>
<path d="M214.376 128.937C195.97 128.937 183.299 141.37 180.472 144.857C180.05 145.379 179.568 145.914 178.96 146.199C172.785 149.097 186.842 130.322 194.021 126.544C205.895 120.295 235.014 128.937 214.376 128.937Z" fill="#151D3B" stroke="#D82148" stroke-width="2" stroke-linecap="round"/>
<path d="M187.414 145.719C183.709 150.624 177.834 164.001 183.97 178.276" stroke="#D82148" stroke-width="2" stroke-linecap="round"/>
<path d="M154.23 162.624C159.97 166.433 164.655 171.076 164.405 180.468" stroke="#D82148" stroke-width="2" stroke-linecap="round"/>
<path d="M142.49 169.355C137.52 169.355 130.896 173.975 126.322 177.926C124.631 179.386 125.302 182.009 127.511 182.338C143.483 184.719 159.453 175.019 158.456 173.737C157.36 172.329 150.63 169.355 142.49 169.355Z" fill="#151D3B" stroke="#D82148" stroke-width="2" stroke-linecap="round"/>
<path d="M199.738 151.158C203.71 148.17 211.781 147.881 217.811 148.288C220.04 148.438 221.081 150.937 219.513 152.528C208.181 164.033 189.588 165.882 189.614 164.259C189.643 162.475 193.234 156.052 199.738 151.158Z" fill="#151D3B" stroke="#D82148" stroke-width="2" stroke-linecap="round"/>
<path d="M115.525 152.575C132.452 145.532 148.882 152.16 152.823 154.299C153.412 154.619 154.062 154.929 154.731 154.959C161.517 155.268 141.379 143.316 133.326 142.575C120.005 141.35 96.5439 160.473 115.525 152.575Z" fill="#151D3B" stroke="#D82148" stroke-width="2" stroke-linecap="round"/>
<path d="M260.354 241.983C264.32 251.687 276.978 269.375 275.224 276.262C273.471 283.149 268.024 291.027 265.52 294.106" stroke="#D82148" stroke-width="3" stroke-linecap="round"/>
<path d="M179.118 312.106C184.384 326.76 199.832 345.083 199.456 347.481" stroke="#D82148" stroke-width="3" stroke-linecap="round"/>
<path d="M169.569 314.611C171.813 330.002 183.344 343.223 182.091 346.855" stroke="#D82148" stroke-width="3" stroke-linecap="round"/>
<path d="M261.606 347.011C261.919 346.072 276.789 316.019 281.954 308.506" stroke="#D82148" stroke-width="3" stroke-linecap="round"/>
<path d="M78.002 267.966C83.2717 270.157 93.1294 276.9 96.0024 284.714C103.829 306.002 90.3675 345.916 90.3675 348.733" stroke="#D82148" stroke-width="3" stroke-linecap="round"/>
<circle cx="140.612" cy="175.616" r="5.00882" fill="#D82148"/>
<circle cx="205.101" cy="155.267" r="5.00882" fill="#D82148"/>
</g>
<rect x="3" y="3" width="343" height="343" stroke="#D82148" stroke-width="6"/>
<defs>
<clipPath id="clip0_3_426">
<rect width="349" height="349" fill="white"/>
</clipPath>
</defs>
</svg>
