<svg width="958" height="958" viewBox="0 0 958 958" fill="none" xmlns="http://www.w3.org/2000/svg">
<g clip-path="url(#clip0_1_124)">
<rect width="958" height="958" fill="#151D3B"/>
<path d="M668.611 618.744C649.968 616.856 640.84 559.688 637.998 552.305C637.777 551.729 637.28 551.358 636.756 551.031C597.525 526.574 357.964 599.161 314.135 600.515C270.019 601.878 125.392 673.213 109.474 676.848C93.556 680.483 90.8272 691.387 61.72 717.286C32.0643 737.275 -47.0932 891.226 -84.9614 969.762C-85.9207 971.751 -84.4419 974 -82.233 974H1041.1C1043.07 974 1044.51 972.174 1044 970.27C1027.74 909.746 992.385 790.739 973.141 770.446C949.007 744.995 790.475 699.8 743.564 686.171C742.15 685.759 741.315 684.354 740.781 682.981C735.627 669.724 686.555 638.764 671.237 620.029C670.594 619.242 669.622 618.847 668.611 618.744Z" fill="#151D3B" stroke="#24B33B" stroke-width="6" stroke-linecap="round"/>
<path d="M532.586 786.992C514.878 787.878 438.587 712.954 427.773 703.038C427.277 702.584 426.914 701.994 427.127 701.356C431.63 687.898 554.534 633.534 619.754 606.221C621.358 605.55 623.146 606.393 623.704 608.04C627.791 620.096 634.899 640.85 637.235 646.858C639.605 652.951 660.261 661.615 672.412 665.97C673.876 666.495 674.736 668.004 674.202 669.465C660.9 705.877 550.352 786.104 532.586 786.992Z" fill="#151D3B" stroke="#24B33B" stroke-width="6" stroke-linecap="round"/>
<path d="M255.84 450.757L255.824 450.722L255.806 450.688C250.76 440.722 247.871 423.917 246.67 403.209C245.477 382.63 245.969 358.63 247.417 334.58C250.313 286.456 257.014 238.446 261.525 217.735C262.374 213.836 265.748 210.177 272.319 206.995C278.831 203.842 287.926 201.444 299.05 199.791C321.265 196.492 350.832 196.266 382.18 198.333C413.497 200.398 446.447 204.742 475.375 210.516C504.373 216.305 529.081 223.485 544.067 231.13C560.067 239.292 573.671 255.745 585.363 276.662C597.023 297.521 606.581 322.453 614.667 347.094L616.017 351.207L619.395 348.498C620.937 347.262 622.483 346.836 624.123 346.96C625.855 347.091 627.893 347.856 630.228 349.385C634.932 352.466 640.084 358.139 645.233 365.244C655.475 379.377 664.977 398.139 670.179 409.652C674.955 420.222 672.991 429.327 669.27 435.98C667.393 439.338 665.072 442.053 662.962 443.96C661.908 444.913 660.937 445.636 660.136 446.129C659.736 446.375 659.401 446.551 659.137 446.667C659.007 446.724 658.904 446.763 658.828 446.788C658.75 446.814 658.715 446.82 658.719 446.819C658.277 446.899 657.405 446.879 656.09 446.612C654.839 446.359 653.424 445.932 652.02 445.412C650.621 444.895 649.291 444.306 648.218 443.754C647.067 443.163 646.44 442.729 646.262 442.566L641.488 445.99C650.044 465.259 651.137 494.821 649.43 523.897C648.04 547.578 644.832 570.481 642.582 586.54C642.083 590.107 641.63 593.336 641.256 596.162C640.338 603.079 635.936 611.25 629.098 620.051C622.318 628.777 613.409 637.792 603.967 646.369C588.703 660.236 572.281 672.758 561.561 680.931C559.01 682.876 556.782 684.575 554.969 685.987C537.263 699.78 507.325 709.866 440.817 697.222C424.832 694.183 408.149 684.143 391.869 670.291C375.633 656.477 360.047 639.088 346.253 621.729C332.468 604.382 320.526 587.133 311.567 573.637C307.438 567.418 303.947 562.003 301.196 557.736L300.511 556.674C297.728 552.358 295.662 549.165 294.626 547.872C293.011 545.858 290.373 541.391 287.267 535.462C284.204 529.615 280.802 522.57 277.664 515.574C274.524 508.571 271.671 501.665 269.695 496.088C268.704 493.294 267.954 490.888 267.494 488.997C267.264 488.051 267.119 487.281 267.048 486.685C267.012 486.389 266.998 486.161 266.997 485.993C266.996 485.819 267.008 485.755 267.005 485.771C267.408 483.628 266.958 480.809 266.303 478.091C265.613 475.23 264.556 471.958 263.359 468.663C260.963 462.064 257.918 455.135 255.84 450.757Z" fill="#151D3B" stroke="#24B33B" stroke-width="6"/>
<path d="M298.838 554.277C297.919 552.603 297.092 551.097 296.358 549.778C296.83 548.954 297.554 547.862 298.378 546.82C299.339 545.604 300.188 544.773 300.722 544.415C300.799 544.404 300.946 544.39 301.181 544.387C301.745 544.38 302.522 544.441 303.546 544.571C304.698 544.717 305.857 544.903 307.143 545.11C308.332 545.3 309.629 545.509 311.131 545.719C316.759 546.508 324.102 547.143 329.792 544.432C330.703 543.997 331.765 543.25 332.846 542.409C333.977 541.531 335.308 540.408 336.798 539.094C339.781 536.464 343.503 532.975 347.711 528.936C353.403 523.472 360.044 516.941 367.023 510.077C370.359 506.796 373.772 503.439 377.196 500.086C387.806 489.697 398.533 479.332 407.506 471.259C411.995 467.22 416.009 463.788 419.327 461.223C422.754 458.575 425.128 457.103 426.424 456.658C427.903 456.149 430.866 455.614 435.256 455.078C439.553 454.554 444.959 454.056 451.151 453.552C456.468 453.118 462.415 452.677 468.711 452.209C476.935 451.599 485.753 450.944 494.54 450.206C510.146 448.895 526.029 447.294 539.347 445.125C546.006 444.041 552.077 442.807 557.182 441.379C562.23 439.968 566.564 438.306 569.586 436.268C580.339 429.017 585.715 422.967 588.941 418.52C589.737 417.423 590.39 416.441 590.94 415.601C591.041 415.447 591.137 415.301 591.228 415.161C591.653 414.51 591.987 413.999 592.303 413.558C592.825 412.827 593.082 412.616 593.159 412.566C593.395 412.513 593.643 412.457 593.901 412.399C595.97 411.933 598.67 411.325 601.184 411.092C602.602 410.96 603.777 410.97 604.633 411.122C605.279 411.237 605.503 411.388 605.544 411.419C605.973 412.028 606.613 413.17 607.443 414.759C607.915 415.663 608.401 416.618 608.909 417.618C609.301 418.39 609.707 419.189 610.131 420.011C611.074 421.842 612.065 423.708 613.007 425.277C613.879 426.729 614.933 428.318 616.054 429.253C616.968 430.015 617.945 430.583 618.771 431.034C619.067 431.196 619.332 431.337 619.577 431.467C620.088 431.739 620.513 431.965 620.954 432.236C622.084 432.933 622.576 433.495 622.784 434.431L622.784 434.433C622.785 434.435 622.786 434.439 622.787 434.446C622.789 434.456 622.791 434.47 622.794 434.488C622.801 434.525 622.808 434.575 622.816 434.64C622.833 434.77 622.851 434.939 622.869 435.15C622.905 435.573 622.936 436.114 622.963 436.772C623.017 438.085 623.051 439.77 623.076 441.725C623.094 443.189 623.108 444.807 623.122 446.517C623.146 449.328 623.172 452.386 623.225 455.411C623.311 460.289 623.468 465.229 623.812 469.202C623.983 471.182 624.207 472.998 624.51 474.478C624.661 475.217 624.845 475.934 625.076 476.575C625.291 477.17 625.625 477.928 626.185 478.568C626.492 478.919 626.882 479.431 627.412 480.128C627.613 480.391 627.834 480.681 628.078 480.999C628.907 482.079 629.919 483.359 631.027 484.551C632.117 485.722 633.419 486.938 634.859 487.795C636.286 488.644 638.211 489.348 640.327 488.829C641.929 488.436 643.721 488.069 645.108 488.098C645.52 488.106 645.793 488.149 645.96 488.189C654.22 527.953 652.968 570.313 637.408 607.351C621.845 644.397 591.885 676.335 542.268 695.138C470.695 722.263 414.127 694.622 372.781 655.613C334.784 619.764 310.001 574.613 298.838 554.277ZM593.184 412.553C593.184 412.554 593.176 412.558 593.163 412.563C593.177 412.554 593.184 412.551 593.184 412.553Z" fill="#151D3B" stroke="#24B33B" stroke-width="6"/>
<path d="M361.614 406.977C339.784 407.833 312.019 419.396 291.831 433.218C289.394 434.886 286.504 432.696 287.978 430.137C293.991 419.702 305.177 408.017 320.1 402.467C339.503 395.25 384.627 406.075 361.614 406.977Z" fill="#151D3B" stroke="#24B33B" stroke-width="3"/>
<path d="M444.906 371.289C459.977 355.217 487.145 341.701 511.012 335.463C513.869 334.716 514.108 331.095 511.209 330.529C499.287 328.2 482.967 328.99 468.864 336.704C450.564 346.713 429.034 388.215 444.906 371.289Z" fill="#151D3B" stroke="#24B33B" stroke-width="3"/>
<path d="M459 449C450.816 443.259 436.084 422.622 442.632 386" stroke="#24B33B" stroke-width="2"/>
<path d="M406.499 468C410.002 457.009 409.606 431.822 380 419" stroke="#24B33B" stroke-width="2"/>
<path d="M393 455C386.759 462.777 357.652 486.289 335 498" stroke="#24B33B" stroke-width="2"/>
<path d="M379.157 448.351C360.361 467.096 328.554 469.026 315 467.648C339.849 421.244 369.217 439.162 375.542 440.541C381.867 440.081 390 443.297 390 443.757C390 444.216 384.578 446.973 379.157 448.351Z" stroke="#24B33B" stroke-width="2"/>
<path d="M466.299 407.185C492.778 406.383 516.317 384.613 524.776 373.828C474.333 360.075 466.664 393.673 463.241 399.21C458.506 403.487 455.136 411.595 455.464 411.91C455.792 412.225 461.538 410.177 466.299 407.185Z" stroke="#24B33B" stroke-width="2"/>
<ellipse cx="351.5" cy="449" rx="12.5" ry="12" fill="#24B33B"/>
<circle cx="491.5" cy="385.5" r="12.5" fill="#24B33B"/>
<path d="M462 424.69C488.971 427.414 532.4 411.975 558 387" stroke="#24B33B" stroke-width="2"/>
<path d="M459.684 871.637C451.741 866.582 374.398 731.803 335.045 662.601C334.408 661.48 334.581 660.115 335.443 659.155L348.058 645.095C349.115 643.917 350.906 643.763 352.149 644.743L531.607 786.28C532.466 786.958 532.899 788.012 532.495 789.029C526.298 804.605 469.298 877.756 459.684 871.637Z" fill="#151D3B" stroke="#24B33B" stroke-width="6" stroke-linecap="round"/>
<path d="M537.008 787.013C628.629 741.507 669.638 672.375 679.572 641.133C679.977 639.859 681.141 638.986 682.474 639.085C705.919 640.824 731.983 668.943 741.572 683.805C741.845 684.227 741.997 684.654 742 685.157C742.19 715.184 646.13 825.613 595.214 880.182C593.868 881.625 591.556 881.351 590.517 879.674L535.753 791.317C534.815 789.805 535.415 787.804 537.008 787.013Z" fill="#151D3B" stroke="#24B33B" stroke-width="6" stroke-linecap="round"/>
<path d="M647.316 458.146C646.701 453.576 646.052 449.592 645.375 446.493C646.056 446.866 646.763 447.241 647.484 447.605C650.714 449.234 654.643 450.874 658.321 451.212C660.193 451.384 662.185 451.238 664.034 450.422C665.945 449.578 667.487 448.111 668.523 446.04C671.87 439.345 671.555 434.009 669.643 429.297C668.736 427.062 667.497 425.032 666.321 423.188C666.09 422.826 665.862 422.473 665.639 422.126C664.683 420.642 663.801 419.271 663.031 417.818C661.243 414.441 660.387 410.455 659.535 404.892C659.352 403.694 659.169 402.429 658.977 401.094C658.29 396.332 657.475 390.679 656.033 384.012C654.184 375.459 651.807 368.523 648.177 363.265C644.466 357.89 639.539 354.405 632.953 352.632C627.608 351.193 623.832 348.871 619.582 344.78C616.114 341.443 612.444 337.047 607.432 331.044C606.085 329.431 604.641 327.701 603.077 325.845C599.496 321.591 596.609 317.781 594.159 314.47C593.614 313.733 593.086 313.014 592.573 312.317C590.814 309.923 589.242 307.784 587.807 306.03C585.971 303.787 584.092 301.826 581.949 300.646C579.763 299.442 577.447 299.125 574.952 299.743C574.922 299.728 574.889 299.711 574.852 299.691C574.376 299.434 573.67 298.927 572.712 298.083C570.814 296.41 568.371 293.81 565.429 290.45C562.272 286.845 558.713 282.569 554.791 277.856C551.344 273.714 547.616 269.235 543.636 264.58C535.224 254.742 525.876 244.355 516.367 235.61C506.906 226.909 497.052 219.612 487.605 216.221C478.814 213.065 472.166 210.276 466.458 207.877L466.187 207.763C460.619 205.422 455.838 203.412 450.868 201.851C440.618 198.633 429.764 197.387 409.118 198.304C388.656 199.214 371.793 200.47 358.18 203.67C344.725 206.832 334.175 211.953 326.377 220.749C316.591 225.971 301.841 234.516 288.719 243.552C282.051 248.144 275.746 252.902 270.713 257.448C265.772 261.91 261.714 266.463 259.985 270.68C258.373 274.608 256.059 279.137 253.503 284.138C253.266 284.601 253.028 285.068 252.787 285.539C249.982 291.037 246.982 297.003 244.566 302.999C239.837 314.737 236.832 327.791 243.402 338.04C248.523 346.029 255.906 350.054 262.231 353.502C263.551 354.222 264.825 354.916 266.023 355.617C269.605 357.711 272.622 359.866 274.9 362.82C277.138 365.724 278.811 369.6 279.335 375.363C280.455 387.682 280.34 401.563 278.779 413.546C277.999 419.537 276.866 424.984 275.379 429.492C273.876 434.049 272.089 437.405 270.144 439.443C264.647 445.202 262.181 454.373 260.975 464.475C259.76 474.661 259.76 486.522 259.76 498.26V498.383C259.76 522.442 264.851 537.395 274.184 547.71C276.496 550.266 279.107 552.817 281.947 555.591C290.185 563.64 300.342 573.564 310.682 590.909C315.656 599.252 325.743 613.69 335.189 626.961C338.765 631.985 342.247 636.84 345.345 641.159C350.246 647.991 354.183 653.48 356.001 656.168C355.927 656.286 355.812 656.449 355.635 656.664C354.795 657.684 353.142 659.029 350.594 660.584C345.569 663.65 337.897 667.034 328.921 670.008C310.875 675.985 288.499 679.998 272.886 676.963C264.753 675.381 255.273 675.081 245.33 675.151C240.858 675.183 236.375 675.287 231.849 675.391C226.088 675.525 220.258 675.66 214.295 675.65C193.174 675.614 173.099 673.674 158.929 663.798C151.194 658.407 144.228 655.075 137.949 652.274C136.95 651.828 135.974 651.397 135.02 650.977C129.918 648.728 125.43 646.749 121.174 644.049C111.399 637.848 102.618 627.648 93.6378 600.708C75.6902 546.864 83.7893 486.143 93.619 458.441C97.4531 447.635 100.708 441.111 103.788 434.938C104.672 433.166 105.542 431.423 106.407 429.616C110.323 421.432 113.922 412.339 117.835 394.384C125.596 358.773 127.431 345.472 131.08 311.721C132.882 295.051 135.569 281.339 141.357 266.421C147.16 251.467 156.128 235.18 170.628 213.429C177.94 202.461 183.656 192.654 188.917 183.628C204.882 156.236 216.653 136.039 256.111 112.431C282.327 96.7468 297.903 94.569 308.895 94.789C311.696 94.8451 314.238 95.0581 316.682 95.2716L317.069 95.3055C319.346 95.5051 321.597 95.7023 323.776 95.7298C328.519 95.7898 333.097 95.0516 338.061 91.922C358.694 78.9138 389.209 67.107 418.988 74.5517C427.206 76.6063 436.159 76.546 445.203 75.6503C452.206 74.9567 459.438 73.7396 466.531 72.546C468.578 72.2015 470.614 71.8589 472.629 71.5315C481.715 70.0549 490.442 68.8736 498.483 69.0108C506.506 69.1478 513.632 70.5975 519.617 74.2098C526.278 78.2289 533.526 82.2106 541.005 86.2948C541.548 86.5911 542.092 86.8879 542.637 87.1854C549.622 90.9982 556.797 94.9147 563.958 99.0852C579.401 108.08 594.62 118.169 607.324 130.65C611.227 134.485 614.589 137.873 617.593 140.902C624.423 147.787 629.404 152.808 634.698 156.971C642.499 163.104 651.017 167.441 667.034 173.619C682.885 179.733 694.671 185.694 703.077 194.046C711.38 202.296 716.617 213.12 718.824 229.455C719.929 237.631 719.532 242.556 718.639 245.974C717.906 248.778 716.841 250.656 715.613 252.822C715.327 253.326 715.032 253.847 714.73 254.398C713.11 257.358 711.635 260.72 711.379 266.081C711.131 271.299 712.041 278.269 714.806 288.523C720.368 309.148 727.039 320.804 735.697 331.229C739.566 335.888 743.826 340.292 748.454 345.078C748.932 345.572 749.414 346.07 749.9 346.574C755.113 351.971 760.854 357.994 767.267 365.645C773.873 373.526 780.556 379.887 786.342 385.361L786.671 385.672C792.386 391.077 797.029 395.469 800.125 399.719C803.206 403.95 804.48 407.675 803.837 411.745C803.168 415.985 800.334 421.184 793.78 428.072C786.518 435.704 784.4 443.254 784.856 450.198C785.282 456.698 787.969 462.435 789.959 466.686L790.164 467.125C791.224 469.391 791.97 471.045 792.298 472.344C792.454 472.965 792.464 473.319 792.444 473.492C792.439 473.533 792.434 473.559 792.43 473.572C792.337 473.67 791.637 474.224 788.97 474.462C786.4 474.69 782.61 474.579 777.153 474.016C754.459 471.676 735.335 477.712 724.09 488.041C718.451 493.221 714.737 499.547 713.738 506.448C712.735 513.385 714.52 520.604 719.35 527.415C724.066 534.065 730.117 539.127 736.211 543.506C738.853 545.404 741.541 547.201 744.139 548.936C744.535 549.201 744.928 549.464 745.319 549.725C748.299 551.72 751.137 553.647 753.757 555.646C759.01 559.655 763.143 563.779 765.529 568.86C767.876 573.86 768.682 580.115 766.647 588.679C762.48 606.225 750.891 624.467 737.83 636.096C731.301 641.908 724.6 645.893 718.484 647.433C712.468 648.949 707.153 648.09 702.81 644.408C695.401 638.126 687.418 633.452 680.212 629.233C677.066 627.392 674.069 625.637 671.332 623.872C662.143 617.95 655.259 611.65 652.358 600.876C647.825 584.04 648.978 576.904 650.656 566.513C651.267 562.734 651.947 558.525 652.448 553.261C653.386 543.413 652.45 516.773 650.634 492.021C649.721 479.594 648.579 467.528 647.316 458.146ZM575.177 299.837C575.176 299.838 575.164 299.835 575.14 299.827C575.164 299.832 575.177 299.837 575.177 299.837ZM356.119 655.915C356.124 655.913 356.121 655.939 356.093 656C356.1 655.948 356.114 655.918 356.119 655.915Z" fill="#151D3B" stroke="#24B33B" stroke-width="6"/>
</g>
<defs>
<clipPath id="clip0_1_124">
<rect width="958" height="958" fill="white"/>
</clipPath>
</defs>
</svg>
