<svg width="349" height="349" viewBox="0 0 349 349" fill="none" xmlns="http://www.w3.org/2000/svg">
<rect x="3" y="3" width="343" height="343" fill="#151D3B"/>
<path d="M288.608 141.559C285.577 139.664 275.663 137.823 271.084 137.139C194.834 126.088 116.688 268.17 135.001 273.222C153.314 278.274 166.733 298.797 170.522 307.953C173.219 314.472 173.449 330.058 173.171 339.382C173.12 341.096 174.485 342.526 176.2 342.526H339.441C341.098 342.526 342.441 341.183 342.441 339.526V146.878C342.441 145.01 340.755 143.596 338.912 143.902C331.674 145.103 321.365 146.571 319.866 145.821C317.656 144.716 310.552 142.822 305.816 143.295C301.08 143.769 292.397 143.927 288.608 141.559Z" fill="#151D3B" stroke="#D82148" stroke-width="3" stroke-linecap="round"/>
<path d="M31.5966 103.986C33.2386 97.9655 40.5337 91.431 45.3613 87.8775C46.5173 87.0266 46.9649 85.5051 46.5759 84.1235C41.0422 64.4663 66.0664 44.21 67.433 37.681C68.8538 30.8926 96.6388 25.6829 126.634 16.3687C156.629 7.05438 215.514 27.8931 229.722 32.6292C243.931 37.3653 243.457 60.4142 247.562 69.4127C251.666 78.4113 259.56 73.8331 265.717 75.5696C271.874 77.3062 271.084 86.6204 277.241 88.5149C283.398 90.4093 291.449 82.358 291.765 86.6204C292.081 90.8829 281.03 98.9342 278.03 109.669C275.031 120.404 277.715 119.773 278.978 126.403C280.241 133.034 270.137 138.086 259.56 139.98C248.983 141.875 182.204 243.227 179.678 245.279C177.152 247.331 177.152 251.909 170.837 257.751C164.523 263.592 153.472 259.014 145.736 260.277C138 261.54 139.737 265.802 132.317 277.011C124.897 288.219 126.002 294.85 123.003 301.638C120.003 308.427 119.056 302.743 107.216 301.638C95.3758 300.533 91.2712 307.637 91.1133 302.743C90.9555 297.849 99.954 292.166 105.953 285.694C111.952 279.221 106.742 270.38 103.269 275.748C99.7961 281.115 81.1676 285.851 83.8513 281.273C86.5351 276.695 88.1138 265.486 74.2213 260.277C60.3288 255.067 51.9618 248.279 44.3841 238.964C36.8063 229.65 27.9657 193.814 29.3865 186.71C30.8073 179.605 27.492 163.818 26.2291 153.241C24.9661 142.664 29.2286 112.669 31.5966 103.986Z" fill="#151D3B" stroke="#D82148" stroke-width="3" stroke-linecap="round"/>
<path d="M122.529 217.967C119.114 215.406 103.347 201.838 95.115 194.703C94.5692 194.23 93.8601 193.992 93.1852 193.735C88.9766 192.129 80.4293 182.725 74.3792 177.395C67.7487 171.554 58.9081 157.346 63.6441 149.137C68.3802 140.927 60.0131 118.984 60.8025 110.459C61.5918 101.934 69.4853 96.2505 78.4838 93.4088C87.4824 90.5672 89.2189 91.1986 101.059 94.5139C112.899 97.8291 123.634 85.3575 130.265 81.8843C136.895 78.4112 141.789 73.6752 147.631 81.8843C153.472 90.0935 172.574 89.1463 179.204 89.7778C185.835 90.4093 200.517 84.4103 207.147 85.3575C212.284 86.0913 220.994 94.0898 225.076 98.3698C225.331 98.6373 225.618 98.8482 225.944 99.0218C239.43 106.197 262.142 145.297 266.822 154.188C271.558 163.187 268.874 196.023 270.137 209.758C271.4 223.493 257.981 238.648 251.982 241.805C245.983 244.963 231.459 244.173 218.514 244.647C205.569 245.121 188.361 247.647 182.362 248.12C176.363 248.594 157.734 240.069 149.841 238.648C141.947 237.227 126.95 221.282 122.529 217.967Z" fill="#151D3B" stroke="#D82148" stroke-width="3" stroke-linecap="round"/>
<circle cx="172.416" cy="129.719" r="4.89395" fill="#D82148"/>
<circle cx="132.949" cy="188.13" r="4.89395" fill="#D82148"/>
<path d="M147.157 176.606C143.21 177.5 134.717 180.016 131.054 182.921C126.476 186.552 124.266 195.392 123.634 198.708V198.708C123.487 199.482 124.987 202.375 125.752 202.186C128.209 201.58 130.888 200.387 133.107 198.234C138.474 193.024 141.474 177.869 147.157 176.606Z" stroke="#D82148" stroke-width="2" stroke-linecap="round"/>
<path d="M164.53 146.993C164.312 142.952 164.413 134.095 166.207 129.778C168.45 124.383 176.351 119.842 179.368 118.33V118.33C180.072 117.976 183.265 118.629 183.292 119.417C183.38 121.946 182.965 124.849 181.499 127.571C177.953 134.157 164.193 141.181 164.53 146.993Z" stroke="#D82148" stroke-width="2" stroke-linecap="round"/>
<path d="M202.253 223.809C207.042 220.283 218.632 213.231 221.284 210.074C224.599 206.127 232.88 187.972 233.511 185.92" stroke="#D82148" stroke-linecap="round"/>
<path d="M233.669 180.553C229.617 185.026 223.032 193.182 220.882 195.392C215.199 201.233 213.778 203.917 209.831 210.863C208.489 213.225 202.885 220.809 199.096 222.704C195.307 224.598 214.883 229.176 220.093 226.65C225.302 224.125 236.037 213.389 237.458 207.39C238.879 201.391 241.405 194.287 234.143 180.553" stroke="#D82148" stroke-width="2" stroke-linecap="round"/>
<path d="M115.985 179.727C122.92 174.294 139.65 165.33 151.093 172.947C165.396 182.468 171.464 206.704 175.365 208.003C179.266 209.301 182.589 207.858 183.166 205.694C183.73 203.582 188.423 196.661 193.349 195.123C193.59 195.048 193.851 195.043 194.081 194.939C196.172 193.996 196.215 184.997 197.036 183.767C197.903 182.468 206.138 176.986 206.283 174.245C206.427 171.505 202.671 164.292 193.713 164.292" stroke="#D82148" stroke-width="2" stroke-linecap="round"/>
<path d="M208.568 167.765C213.409 167.66 225.081 166.818 233.038 164.292" stroke="#D82148" stroke-linecap="round"/>
<path d="M259.875 172.186C261.402 177.711 264.99 189.583 267.137 192.866" stroke="#D82148" stroke-linecap="round"/>
<path d="M154.893 237.543C161.102 236.491 174.974 232.586 180.783 225.388" stroke="#D82148" stroke-linecap="round"/>
<path d="M118.681 172.578C114.068 175.134 110.383 178.229 107.544 181.187C102.231 186.721 90.7638 190.978 94.1094 184.075C94.9565 182.327 96.3685 180.461 98.3757 178.658C102.652 174.818 110.162 170.929 117.97 168.647C121.229 167.694 121.651 170.932 118.681 172.578Z" stroke="#D82148" stroke-width="2" stroke-linecap="round"/>
<path d="M146.906 124.65C149.181 119.892 152.049 116.028 154.832 113.016C160.038 107.382 163.601 95.6801 156.91 99.4333C155.216 100.384 153.438 101.905 151.759 104.016C148.182 108.515 144.75 116.245 142.939 124.175C142.183 127.485 145.441 127.712 146.906 124.65Z" stroke="#D82148" stroke-width="2" stroke-linecap="round"/>
<path d="M152.998 141.401C154.629 148.242 161.365 161.64 175.258 160.503" stroke="#D82148" stroke-width="3" stroke-linecap="round"/>
<path d="M206.358 246.542C206.989 247.173 215.041 254.593 218.514 254.751C221.987 254.909 254.982 261.855 256.718 264.697C258.455 267.539 259.56 277.011 258.613 278.432C257.665 279.852 270.137 297.376 269.979 299.112" stroke="#D82148" stroke-width="3" stroke-linecap="round"/>
<path d="M233.669 259.329L258.298 307.619C259.537 310.048 263.333 309.763 264.503 307.3C266.368 303.374 268.992 299.216 272.189 297.06C278.977 292.482 281.503 292.008 281.503 285.851C281.503 279.694 278.346 261.382 279.925 257.751C281.503 254.12 282.451 224.598 283.24 220.651C284.029 216.705 274.083 138.875 275.346 137.77" stroke="#D82148" stroke-width="3" stroke-linecap="round"/>
<path d="M310.394 213.863C309.92 212.442 302.185 166.66 299.659 164.292C297.386 162.161 280.67 151.084 276.768 148.54C283.872 200.987 270.611 219.388 269.19 222.388C267.769 225.388 269.506 251.278 271.242 250.015C272.554 249.061 278.757 231.792 282.191 221.852C282.548 220.817 283.434 220.062 284.512 219.871C294.263 218.137 310.75 214.933 310.394 213.863Z" fill="#151D3B"/>
<path d="M275.978 148.032C276.057 148.079 276.333 148.257 276.768 148.54M276.768 148.54C280.67 151.084 297.386 162.161 299.659 164.292C302.185 166.66 309.92 212.442 310.394 213.863C310.75 214.933 294.263 218.137 284.512 219.871C283.434 220.062 282.548 220.817 282.191 221.852C278.757 231.792 272.554 249.061 271.242 250.015C269.506 251.278 267.769 225.388 269.19 222.388C270.611 219.388 283.872 200.987 276.768 148.54Z" stroke="#D82148" stroke-width="3" stroke-linecap="round"/>
<path d="M233.827 244.805C235.15 245.908 243.706 252.623 249.395 257.078C250.663 258.071 252.487 257.886 253.532 256.659C259.39 249.78 268.51 239.235 269.19 239.122" stroke="#D82148" stroke-width="3" stroke-linecap="round"/>
<path d="M101.217 302.743C99.3754 305.006 95.3761 310.353 94.1131 313.636C92.5344 317.741 93.6395 319.32 92.5344 325.634V325.634C92.1361 327.911 96.7585 329.686 98.5774 328.261C103.122 324.699 109.814 321.616 119.056 321.214C140.842 320.267 167.522 340.79 173.048 343" stroke="#D82148" stroke-width="3" stroke-linecap="round"/>
<path d="M93.0002 325C93.0002 325.395 92.3941 334.434 92.0038 339.72C91.8737 341.481 93.2696 343 95.0357 343H173.048" stroke="#D82148" stroke-width="3" stroke-linecap="round"/>
<path d="M192.71 247.489L226.566 340.708C226.996 341.894 228.124 342.684 229.385 342.684H299.324C300.688 342.684 301.875 341.784 302.22 340.464C311.111 306.377 327.503 240.639 326.267 233.596C324.689 224.597 321.373 148.505 323.268 145.979" stroke="#D82148" stroke-width="3" stroke-linecap="round"/>
<rect x="3" y="3" width="343" height="343" stroke="#D82148" stroke-width="6"/>
</svg>
