<svg width="349" height="349" viewBox="0 0 349 349" fill="none" xmlns="http://www.w3.org/2000/svg">
<g clip-path="url(#clip0_2_365)">
<rect width="349" height="349" fill="#151D3B"/>
<path d="M52.3131 219.816C53.3825 218.288 83.0123 205.667 99.0961 198.959C100.053 198.56 101.147 198.684 101.99 199.286L209.503 276.026C216.078 280.365 230.054 289.713 233.368 292.396C237.51 295.749 245.201 307.188 252.302 313.105C259.402 319.021 265.91 323.36 270.841 327.305C273.912 329.762 280.451 337.958 285.244 344.26C286.731 346.216 285.326 349 282.868 349H-22C-23.6569 349 -25 347.657 -25 346V220.815C-25 219.094 -23.5682 217.725 -21.8496 217.816C4.29719 219.21 51.2527 221.331 52.3131 219.816Z" fill="#151D3B" stroke="#D82148" stroke-width="3" stroke-linecap="round"/>
<path d="M82.8832 219.619C88.8504 222.006 94.6784 220.381 97.9083 218.747C98.8921 218.25 100.037 218.142 101.02 218.642C137.99 237.436 209.036 273.879 209.503 275.434C210.095 277.406 216.012 285.493 220.548 286.676C225.084 287.86 228.24 285.493 234.157 281.943C240.073 278.393 248.16 272.673 247.962 281.943C247.765 291.212 256.049 300.285 260.585 298.115C265.121 295.946 269.066 297.326 269.066 300.285C269.066 303.243 273.405 310.935 278.138 314.88C282.872 318.824 288.394 313.499 288.789 318.43C289.183 323.36 290.366 328.883 297.467 331.644C304.567 334.405 315.809 327.305 321.134 321.783C326.459 316.26 324.684 294.96 323.303 285.493C321.923 276.026 323.895 262.22 327.445 265.77C330.995 269.32 341.251 286.282 357.226 294.96C373.202 303.638 370.441 270.898 373.596 262.22C376.752 253.542 362.946 223.169 354.465 213.11C345.984 203.052 359.988 205.221 365.904 198.121C371.821 191.021 359.396 154.337 351.901 150.392C344.407 146.448 331.192 131.458 334.545 124.555C337.898 117.652 327.248 90.435 325.276 80.968C323.303 71.5011 311.075 61.837 303.778 56.3146C298.137 52.0456 284.481 53.1982 279.211 53.9413C277.896 54.1267 277.46 53.4659 277.554 52.1417C278.544 38.2716 251.096 24.5997 239.482 21.6026C227.254 18.447 206.742 28.7028 195.303 28.9C183.864 29.0972 164.93 42.5087 161.971 47.0449C159.013 51.5812 148.579 47.045 139.901 51.1868C131.223 55.3286 118.699 61.5748 115.346 66.5055C111.993 71.4362 101.835 89.0312 92.3679 92.1868C82.901 95.3425 82.8832 115.088 81.5026 119.033C80.122 122.977 80.122 125.147 78.1498 127.908C76.1775 130.669 67.8939 132.05 64.1466 133.036C60.3993 134.022 58.0326 146.448 61.3854 143.686C64.7383 140.925 67.8939 141.122 73.8108 139.15C79.7276 137.178 74.5997 146.25 70.2607 152.167C65.9217 158.084 64.5411 157.887 61.3854 165.579C58.2298 173.27 59.4132 190.429 59.4132 204.432C59.4132 218.436 74.008 216.069 82.8832 219.619Z" fill="#151D3B" stroke="#D82148" stroke-width="3" stroke-linecap="round"/>
<path d="M260.879 254.936C257.762 254.624 257.477 250.866 257.495 248.912C257.501 248.215 257.751 247.566 258.161 247.001C263.671 239.398 288.955 198.288 290.463 197.345C292.04 196.359 293.815 196.162 296.971 199.515C300.127 202.868 295.393 206.615 293.815 210.757C292.238 214.899 287.504 221.604 281.982 225.154C276.459 228.704 273.501 235.805 273.501 240.735C273.501 245.666 264.823 255.33 260.879 254.936Z" fill="#151D3B" stroke="#D82148" stroke-width="3" stroke-linecap="round"/>
<path d="M142.643 102.071C149.27 99.3891 164.601 83.5977 171.439 76.0374C232.776 17.6581 267.094 59.8647 291.55 73.4734C315.819 86.9777 302.41 160.688 299.119 178.778L299.045 179.187C297.456 187.926 287.767 204.065 278.336 218.189C269.036 232.115 259.988 244.082 259.205 245.061C257.627 247.033 232.579 268.531 199.05 279.379C165.522 290.226 121.737 259.853 107.142 241.511C92.5477 223.169 103.395 175.045 107.142 161.831C109.903 152.097 123.365 126.096 133.576 111.736C137.227 106.601 140.462 102.954 142.643 102.071Z" fill="#151D3B"/>
<path d="M133.576 111.736C137.227 106.601 140.462 102.954 142.643 102.071C149.27 99.3891 164.601 83.5977 171.439 76.0374C232.776 17.6581 267.094 59.8647 291.55 73.4734C316.006 87.0821 302.2 161.831 299.045 179.187C297.456 187.926 287.767 204.065 278.336 218.189M133.576 111.736C123.365 126.096 109.903 152.097 107.142 161.831C103.395 175.045 92.5477 223.169 107.142 241.511C121.737 259.853 165.522 290.226 199.05 279.379C232.579 268.531 257.627 247.033 259.205 245.061C259.988 244.082 269.036 232.115 278.336 218.189M133.576 111.736C135.744 114.102 140.592 119.151 142.643 120.414C145.207 121.991 212.265 127.514 216.604 128.105C220.943 128.697 231.199 148.223 233.171 152.167C235.143 156.112 270.447 191.415 278.336 191.415C286.225 191.415 281.689 203.249 280.9 205.024C280.269 206.444 278.928 214.392 278.336 218.189" stroke="#D82148" stroke-width="3" stroke-linecap="round"/>
<path d="M140.67 343.28C142.84 342.294 177.355 335.589 184.652 328.291C191.95 320.994 200.628 301.468 199.05 296.34C197.472 291.212 206.544 274.645 209.7 275.434" stroke="#D82148" stroke-width="3" stroke-linecap="round"/>
<path d="M47.3824 273.856C44.0434 256.402 48.4664 232.318 51.3827 221.264C51.5946 220.46 52.1367 219.794 52.88 219.423C64.2924 213.73 84.8737 206.954 84.2638 221.591C83.4749 240.525 107.142 316.655 112.467 323.36C115.686 327.413 129.388 336.299 140.546 343.095C143.165 344.691 142.041 348.803 138.974 348.803H72.3797C71.1095 348.803 69.9794 348.011 69.5579 346.813C63.1299 328.539 50.7271 291.34 47.3824 273.856Z" fill="#151D3B" stroke="#D82148" stroke-width="3" stroke-linecap="round"/>
<path d="M289.972 141.122C285.499 132.831 269.527 125.807 258.851 121.966C256.019 120.947 255.988 116.528 258.967 116.107C278.474 113.352 291.427 126.736 294.311 131.655C297.664 137.375 298.058 156.112 289.972 141.122Z" fill="#151D3B" stroke="#D82148" stroke-width="3" stroke-linecap="round"/>
<path d="M183.981 77.3724C193.4 77.1524 207.411 87.5506 216.036 94.9231C218.323 96.8785 222.178 94.7174 221.068 91.9204C213.801 73.6093 195.759 68.9839 190.057 68.9147C183.428 68.8342 166.954 77.7701 183.981 77.3724Z" fill="#151D3B" stroke="#D82148" stroke-width="3" stroke-linecap="round"/>
<path d="M167.494 98.1268C186.427 98.1268 195.894 103.638 203.192 113.905" stroke="#D82148" stroke-width="3" stroke-linecap="round"/>
<path d="M248.968 144.464C267.355 148.985 275.232 156.597 279.867 168.309" stroke="#D82148" stroke-width="3" stroke-linecap="round"/>
<path d="M208.434 126.34C211.107 124.13 216.916 117.241 215.682 110.455" stroke="#D82148" stroke-linecap="round"/>
<path d="M225.091 137.291C227.301 133.538 233.265 125.724 239.434 124.49" stroke="#D82148" stroke-linecap="round"/>
</g>
<rect x="3" y="3" width="343" height="343" stroke="#D82148" stroke-width="6"/>
<defs>
<clipPath id="clip0_2_365">
<rect width="349" height="349" fill="white"/>
</clipPath>
</defs>
</svg>
