<svg width="349" height="349" viewBox="0 0 349 349" fill="none" xmlns="http://www.w3.org/2000/svg">
<g clip-path="url(#clip0_2_340)">
<rect width="349" height="349" fill="#151D3B"/>
<path d="M236.005 220.456C230.278 218.109 227.266 201.263 226.128 197.27C225.959 196.676 225.53 196.233 224.979 195.953C209.337 188.01 124.586 213.641 108.933 214.124C92.9936 214.617 40.7388 240.39 34.9875 241.704C29.2362 243.017 28.2503 246.957 17.7336 256.314C7.35417 263.311 -19.8087 315.726 -33.936 344.794C-34.9015 346.781 -33.4419 349.067 -31.233 349.067H369.097C371.067 349.067 372.505 347.21 371.987 345.309C365.864 322.839 353.743 282.593 347.037 275.522C338.661 266.689 285.48 251.273 266.277 245.707L265.659 245.528C264.244 245.118 263.144 243.703 262.253 242.529C258.39 237.434 244.255 228.166 238.638 221.964C237.956 221.211 236.946 220.841 236.005 220.456Z" fill="#151D3B" stroke="#D82148" stroke-width="3" stroke-linecap="round"/>
<path d="M187.861 281.5C181.685 281.809 155.789 256.598 150.483 251.623C149.992 251.163 149.678 250.513 150.093 249.983C154.408 244.461 194.367 226.706 217.457 216.983C219.059 216.308 220.883 217.143 221.444 218.789C222.931 223.154 224.943 228.995 225.671 230.868C226.428 232.813 232.34 235.483 236.735 237.164C238.188 237.719 239.024 239.271 238.306 240.651C231.147 254.417 194.029 281.191 187.861 281.5Z" fill="#151D3B" stroke="#D82148" stroke-width="3" stroke-linecap="round"/>
<path d="M88.2465 159.837L88.2383 159.82L88.2296 159.803C86.4484 156.285 85.4063 150.289 84.9729 142.812C84.5432 135.399 84.7201 126.746 85.2426 118.065C86.2882 100.692 88.7071 83.3677 90.3311 75.9115C90.5978 74.6868 91.6783 73.4441 94.006 72.317C96.3043 71.2041 99.543 70.3457 103.544 69.7514C111.528 68.5655 122.178 68.4823 133.491 69.2282C144.789 69.9732 156.675 71.5401 167.109 73.6229C177.578 75.7127 186.459 78.2981 191.82 81.0333C196.763 83.5551 201.102 88.3342 204.933 94.535C208.754 100.719 211.991 108.187 214.789 115.911C215.545 118 217.42 119.675 219.15 120.999C219.899 121.572 220.682 122.122 221.411 122.636C221.552 122.734 221.69 122.832 221.826 122.928C222.688 123.536 223.441 124.081 224.043 124.597C226.481 126.691 229.109 130.376 231.495 134.376C233.858 138.34 235.901 142.471 237.195 145.335C238.857 149.013 238.175 152.163 236.883 154.474C236.228 155.644 235.419 156.59 234.688 157.251C234.323 157.581 233.992 157.826 233.728 157.989C233.514 158.121 233.392 158.168 233.36 158.181C233.347 158.186 233.347 158.186 233.359 158.183C232.772 158.29 232.18 158.581 231.691 158.88C231.175 159.196 230.65 159.598 230.185 160.037C229.726 160.47 229.276 160.984 228.953 161.538C228.656 162.048 228.323 162.841 228.523 163.714C230.239 171.187 230.138 180.856 229.415 189.992C228.842 197.232 227.891 204.025 227.192 209.011C227.011 210.302 226.848 211.472 226.712 212.497C226.395 214.884 224.861 217.764 222.403 220.927C219.974 224.054 216.775 227.292 213.372 230.384C207.872 235.38 201.958 239.89 198.084 242.843C197.159 243.548 196.351 244.164 195.692 244.678C189.429 249.557 178.753 253.214 154.782 248.656C149.11 247.578 143.149 244.004 137.289 239.018C131.451 234.051 125.838 227.791 120.863 221.53C115.893 215.275 111.585 209.054 108.352 204.183C106.862 201.939 105.602 199.984 104.608 198.443L104.36 198.059C103.363 196.512 102.601 195.332 102.209 194.844C101.654 194.152 100.718 192.572 99.5939 190.427C98.4919 188.323 97.2662 185.785 96.1356 183.264C95.0037 180.74 93.9776 178.255 93.2686 176.255C92.9131 175.252 92.6469 174.397 92.4856 173.734C92.4049 173.401 92.3562 173.141 92.3331 172.947C92.3149 172.794 92.3181 172.727 92.3177 172.721C92.474 171.855 92.2906 170.769 92.0555 169.794C91.8012 168.739 91.4136 167.541 90.9785 166.343C90.107 163.943 89.0012 161.427 88.2465 159.837Z" fill="#151D3B" stroke="#D82148" stroke-width="3"/>
<path d="M103.087 195.649C103.295 195.33 103.551 194.984 103.807 194.692C103.994 194.479 104.141 194.341 104.238 194.261C104.244 194.261 104.251 194.261 104.258 194.261C104.432 194.259 104.691 194.278 105.055 194.324C105.474 194.377 105.878 194.442 106.331 194.515C106.756 194.583 107.224 194.659 107.79 194.738C109.815 195.022 112.587 195.276 114.769 194.236C115.142 194.059 115.555 193.764 115.949 193.459C116.367 193.134 116.855 192.722 117.397 192.244C118.481 191.288 119.831 190.023 121.353 188.562C123.411 186.586 125.813 184.223 128.336 181.742C129.541 180.557 130.773 179.345 132.009 178.136C135.842 174.382 139.712 170.643 142.947 167.732C144.566 166.276 146.007 165.044 147.194 164.126C148.435 163.167 149.244 162.677 149.639 162.541C150.127 162.373 151.155 162.184 152.745 161.99C154.289 161.801 156.236 161.622 158.472 161.44C160.383 161.284 162.531 161.125 164.806 160.956C167.783 160.735 170.979 160.497 174.15 160.231C179.791 159.757 185.542 159.178 190.371 158.391C192.785 157.998 194.995 157.549 196.86 157.028C198.696 156.514 200.314 155.9 201.462 155.126C205.386 152.479 207.365 150.259 208.559 148.612C208.853 148.208 209.093 147.847 209.293 147.541C209.33 147.484 209.365 147.43 209.399 147.379C209.552 147.145 209.667 146.969 209.775 146.817C209.856 146.705 209.912 146.637 209.947 146.598C209.999 146.587 210.053 146.574 210.107 146.562C210.857 146.393 211.805 146.18 212.684 146.099C213.181 146.053 213.563 146.059 213.819 146.105C213.873 146.114 213.913 146.124 213.942 146.132C214.079 146.345 214.278 146.703 214.539 147.202C214.709 147.528 214.882 147.868 215.064 148.227C215.206 148.505 215.353 148.795 215.509 149.097C215.85 149.76 216.213 150.445 216.561 151.024C216.874 151.544 217.286 152.177 217.752 152.566C218.114 152.868 218.496 153.088 218.801 153.255C218.918 153.319 219.019 153.372 219.109 153.42C219.286 153.514 219.423 153.587 219.571 153.678C219.931 153.9 220.003 154.023 220.044 154.207C220.044 154.205 220.044 154.206 220.044 154.209C220.046 154.223 220.056 154.283 220.066 154.411C220.079 154.556 220.09 154.745 220.099 154.98C220.119 155.448 220.131 156.052 220.14 156.758C220.146 157.283 220.151 157.866 220.156 158.483C220.165 159.5 220.174 160.61 220.194 161.704C220.225 163.469 220.282 165.265 220.407 166.716C220.47 167.438 220.552 168.112 220.666 168.669C220.723 168.948 220.794 169.228 220.887 169.485C220.971 169.719 221.114 170.049 221.366 170.338C221.819 170.856 222.579 171.57 223.386 172.319C223.52 172.444 223.657 172.571 223.796 172.7C224.523 173.374 225.308 174.102 226.068 174.843C226.976 175.728 227.809 176.595 228.427 177.363C228.735 177.746 228.969 178.079 229.129 178.357C229.297 178.65 229.334 178.798 229.338 178.826C231.335 192.464 230.113 206.592 224.263 218.86C218.429 231.094 207.946 241.581 191.212 247.923C165.98 257.485 145.958 248.082 131.16 234.431C117.053 221.417 107.866 204.679 103.764 197.205C103.548 196.813 103.347 196.445 103.159 196.106C103.076 195.954 103.054 195.84 103.052 195.776C103.05 195.725 103.06 195.69 103.087 195.649ZM104.132 194.269C104.131 194.268 104.134 194.268 104.141 194.267C104.135 194.268 104.132 194.269 104.132 194.269ZM214.001 146.154C214.001 146.154 213.998 146.153 213.995 146.151C213.999 146.152 214.001 146.154 214.001 146.154Z" fill="#151D3B" stroke="#D82148" stroke-width="3"/>
<path d="M126.087 144.198C119.984 144.437 112.597 146.992 106.188 150.45C103.589 151.852 101.188 149.744 103.282 147.662C105.382 145.573 108.016 143.711 111.088 142.568C118.099 139.961 134.402 143.872 126.087 144.198Z" fill="#151D3B" stroke="#D82148" stroke-width="2"/>
<path d="M156.182 131.303C160.405 126.8 167.257 122.851 174.143 120.254C176.906 119.212 176.889 116.013 173.943 116.221C170.945 116.434 167.76 117.209 164.838 118.807C158.226 122.424 150.447 137.419 156.182 131.303Z" fill="#151D3B" stroke="#D82148" stroke-width="2"/>
<path d="M161.274 159.381C158.317 157.307 152.994 149.85 155.36 136.618" stroke="#D82148"/>
<path d="M142.305 166.246C143.57 162.275 143.427 153.174 132.73 148.542" stroke="#D82148"/>
<path d="M137.428 161.549C135.172 164.358 124.656 172.854 116.472 177.085" stroke="#D82148"/>
<path d="M132.426 159.146C125.635 165.919 114.143 166.616 109.246 166.118C118.224 149.352 128.835 155.826 131.12 156.324C133.405 156.158 136.344 157.32 136.344 157.486C136.344 157.652 134.385 158.648 132.426 159.146Z" stroke="#D82148"/>
<path d="M163.911 144.273C173.478 143.983 181.983 136.117 185.039 132.22C166.814 127.251 164.043 139.391 162.806 141.391C161.095 142.937 159.878 145.866 159.996 145.98C160.115 146.093 162.191 145.354 163.911 144.273Z" stroke="#D82148"/>
<ellipse cx="122.433" cy="159.381" rx="4.51634" ry="4.33569" fill="#D82148"/>
<circle cx="173.016" cy="136.438" r="4.51634" fill="#D82148"/>
<path d="M162.358 150.597C172.103 151.582 187.794 146.003 197.043 136.98" stroke="#D82148"/>
<path d="M161.521 312.083C158.696 310.285 131.583 263.086 117.172 237.759C116.534 236.637 116.691 235.245 117.553 234.284L119.989 231.57C121.046 230.392 122.837 230.238 124.079 231.218L186.618 280.541C187.477 281.218 187.85 282.3 187.339 283.267C183.507 290.517 164.815 314.179 161.521 312.083Z" fill="#151D3B" stroke="#D82148" stroke-width="3" stroke-linecap="round"/>
<path d="M191.348 280.549C221.874 264.759 236.291 241.771 240.501 230.17C240.957 228.914 242.131 227.999 243.444 228.252C251.307 229.767 259.645 238.659 263.099 243.807C263.379 244.224 263.545 244.692 263.505 245.194C262.622 256.351 230.662 293.382 212.192 313.338C210.851 314.786 208.515 314.539 207.475 312.862L190.125 284.868C189.187 283.356 189.768 281.367 191.348 280.549Z" fill="#151D3B" stroke="#D82148" stroke-width="3" stroke-linecap="round"/>
<path d="M124.752 70.3361C119.868 71.4839 115.983 73.3504 113.095 76.5799C109.549 78.4749 104.242 81.5524 99.5141 84.8082C97.0973 86.4725 94.8029 88.2032 92.9654 89.8627C91.1743 91.4801 89.6461 93.1784 88.9832 94.7944C88.4079 96.1967 87.5798 97.8174 86.6537 99.6298C86.569 99.7956 86.4834 99.963 86.3972 100.132C85.3838 102.118 84.292 104.288 83.4114 106.474C81.7013 110.718 80.5301 115.621 83.0263 119.515C84.9399 122.5 87.7199 124.013 90.0064 125.257C90.4755 125.513 90.9239 125.757 91.3398 126C92.6185 126.747 93.6536 127.493 94.4275 128.497C95.1821 129.476 95.7621 130.799 95.9452 132.813C96.3474 137.237 96.3055 142.221 95.7461 146.517C95.4664 148.665 95.0617 150.606 94.5351 152.202C94.0005 153.823 93.379 154.969 92.7378 155.64C90.6517 157.826 89.75 161.26 89.313 164.923C88.8709 168.628 88.8709 172.933 88.8709 177.163V177.223C88.8709 185.972 90.7224 191.492 94.1898 195.325C95.0454 196.27 96.0022 197.205 97.0372 198.216C100.008 201.119 103.623 204.651 107.328 210.866C109.136 213.899 112.791 219.129 116.201 223.921C117.499 225.744 118.76 227.502 119.88 229.064C121.507 231.332 122.836 233.184 123.546 234.217C123.266 234.528 122.731 234.959 121.889 235.473C120.11 236.558 117.37 237.769 114.144 238.837C107.646 240.99 99.6436 242.413 94.1091 241.337C91.1273 240.757 87.6671 240.649 84.0705 240.675C82.4359 240.686 80.8141 240.724 79.1807 240.762C77.1092 240.81 75.0192 240.858 72.8609 240.855C65.2282 240.842 58.0966 240.134 53.0938 236.647C50.2676 234.678 47.7231 233.461 45.4454 232.445C45.0803 232.282 44.7253 232.126 44.3792 231.973C42.5359 231.16 40.9467 230.459 39.4377 229.502C36.0172 227.332 32.8885 223.746 29.6605 214.062C23.2106 194.712 26.1245 172.87 29.6511 162.931C31.0273 159.053 32.1905 156.721 33.3018 154.493C33.6225 153.851 33.9388 153.217 34.2547 152.557C35.6845 149.569 36.9946 146.253 38.4149 139.736C41.2228 126.853 41.8879 122.032 43.2075 109.826C43.8562 103.825 44.821 98.9091 46.8952 93.564C48.9764 88.201 52.1983 82.3446 57.4292 74.4981C60.0942 70.5006 62.17 66.9394 64.0751 63.6712C69.8281 53.8016 74.0234 46.6043 88.1823 38.133C97.5987 32.4992 103.151 31.74 107.032 31.8177C108.028 31.8376 108.934 31.9134 109.817 31.9906L109.961 32.0032C110.78 32.0749 111.608 32.1475 112.411 32.1577C114.182 32.18 115.92 31.9024 117.799 30.7178C125.214 26.0435 136.118 21.8438 146.716 24.4934C149.753 25.2526 153.042 25.2264 156.33 24.9008C158.876 24.6486 161.508 24.2056 164.073 23.7739C164.81 23.6498 165.542 23.5267 166.265 23.4093C169.546 22.8761 172.667 22.455 175.532 22.5039C178.389 22.5526 180.882 23.0685 182.96 24.3225C185.376 25.7799 188.002 27.2226 190.704 28.6979C190.899 28.8048 191.096 28.9119 191.292 29.0192C193.817 30.3973 196.405 31.8097 198.986 33.3135C204.555 36.5567 210.019 40.1815 214.573 44.6552C215.968 46.0256 217.175 47.2424 218.257 48.3337C220.737 50.8336 222.564 52.675 224.498 54.1955C227.365 56.45 230.488 58.0344 236.288 60.2717C242.006 62.4769 246.195 64.6057 249.168 67.5592C252.088 70.4613 253.95 74.2804 254.738 80.1132C255.133 83.0337 254.985 84.7551 254.681 85.9206C254.431 86.8772 254.075 87.5045 253.636 88.2807C253.531 88.4663 253.421 88.6605 253.306 88.8698C252.701 89.9754 252.141 91.2521 252.045 93.271C251.952 95.2184 252.293 97.7843 253.297 101.507C255.321 109.012 257.757 113.279 260.926 117.095C262.335 118.791 263.885 120.394 265.556 122.121C265.729 122.3 265.903 122.48 266.079 122.662C267.961 124.611 270.027 126.779 272.334 129.531C274.738 132.399 277.168 134.712 279.259 136.69L279.354 136.779C281.439 138.752 283.093 140.316 284.188 141.82C285.264 143.297 285.664 144.532 285.455 145.855C285.233 147.264 284.277 149.067 281.931 151.533C279.23 154.37 278.42 157.211 278.593 159.841C278.752 162.269 279.753 164.405 280.468 165.933C280.496 165.992 280.523 166.049 280.549 166.105C280.937 166.935 281.187 167.494 281.293 167.917C281.303 167.953 281.31 167.985 281.316 168.013C281.174 168.06 280.912 168.125 280.457 168.166C279.569 168.245 278.231 168.208 276.268 168.005C267.981 167.151 260.943 169.349 256.771 173.18C254.677 175.103 253.278 177.472 252.901 180.078C252.521 182.701 253.201 185.415 255.001 187.953C256.743 190.411 258.972 192.271 261.19 193.864C262.15 194.555 263.128 195.208 264.066 195.835C264.209 195.93 264.351 196.025 264.492 196.119C265.568 196.84 266.584 197.53 267.519 198.243C269.396 199.676 270.828 201.117 271.648 202.864C272.45 204.57 272.742 206.731 272.024 209.752C270.54 216.001 266.402 222.519 261.74 226.669C259.411 228.743 257.048 230.138 254.926 230.673C252.853 231.195 251.079 230.891 249.633 229.666C246.928 227.372 243.987 225.65 241.371 224.118C240.244 223.458 239.178 222.833 238.216 222.214C234.931 220.096 232.546 217.893 231.537 214.147C229.924 208.154 230.326 205.665 230.927 201.941C231.149 200.571 231.397 199.032 231.582 197.091C231.763 195.191 231.538 191.952 231.157 188.261C230.771 184.52 230.205 180.153 229.653 175.917L229.599 175.501C229.065 171.402 228.551 167.452 228.223 164.291C228.054 162.656 227.937 161.256 227.893 160.168C227.852 159.176 227.881 158.6 227.921 158.345C228.103 158.342 228.36 158.369 228.73 158.435C228.958 158.475 229.16 158.516 229.383 158.562C229.561 158.598 229.752 158.637 229.981 158.68C230.866 158.849 232.053 159.035 233.212 158.778C234.489 158.495 235.607 157.707 236.342 156.238C237.433 154.054 237.841 152.498 237.275 151.007C237.039 150.383 236.654 149.856 236.356 149.448L236.321 149.401L236.319 149.397C235.992 148.949 235.673 148.511 235.36 147.92C234.75 146.767 234.448 145.39 234.14 143.381C234.075 142.953 234.009 142.5 233.94 142.02C233.692 140.298 233.394 138.237 232.87 135.812C232.198 132.703 231.325 130.134 229.967 128.167C228.569 126.143 226.705 124.826 224.233 124.161C222.38 123.662 221.076 122.863 219.582 121.426C218.347 120.237 217.04 118.672 215.232 116.507C214.744 115.922 214.219 115.293 213.648 114.616C212.362 113.089 211.325 111.72 210.442 110.527C210.248 110.264 210.059 110.007 209.875 109.756C209.238 108.889 208.661 108.104 208.135 107.461C207.465 106.643 206.745 105.882 205.897 105.415C205.062 104.955 204.174 104.817 203.234 105.011C203.098 104.924 202.9 104.776 202.634 104.541C201.97 103.956 201.102 103.034 200.04 101.821C198.9 100.519 197.621 98.9823 196.209 97.2859C194.965 95.791 193.618 94.1717 192.17 92.4781C189.127 88.9197 185.737 85.1518 182.283 81.9751C178.852 78.8205 175.242 76.1381 171.75 74.8843C168.584 73.748 166.191 72.7441 164.13 71.8775L164.022 71.8324C162.018 70.9898 160.275 70.2568 158.46 69.6871C154.692 68.5041 150.716 68.0543 143.233 68.3869C135.841 68.7154 129.712 69.1701 124.752 70.3361ZM123.721 233.988C123.721 233.988 123.719 233.993 123.713 234.003C123.717 233.993 123.721 233.988 123.721 233.988ZM281.336 168.184C281.336 168.183 281.336 168.178 281.337 168.17C281.337 168.181 281.337 168.186 281.336 168.184ZM203.399 105.1C203.399 105.101 203.389 105.098 203.37 105.089C203.389 105.095 203.399 105.1 203.399 105.1Z" fill="#151D3B" stroke="#D82148" stroke-width="3"/>
</g>
<rect x="3" y="3" width="343" height="343" stroke="#D82148" stroke-width="6"/>
<defs>
<clipPath id="clip0_2_340">
<rect width="349" height="349" fill="white"/>
</clipPath>
</defs>
</svg>
